<svg width="165" height="36" viewBox="0 0 165 36" fill="none" xmlns="http://www.w3.org/2000/svg">
<path d="M75.2512 26.619V17.5397C75.2512 16.4379 74.971 15.581 74.4201 14.992C73.8719 14.4072 73.1184 14.1093 72.1812 14.1093C71.5202 14.1093 70.9339 14.2562 70.4374 14.5473C69.9437 14.837 69.5506 15.2586 69.269 15.8014C68.9848 16.3495 68.8419 17.0051 68.8419 17.7478V26.6176H65.6768V17.5084C65.6768 16.408 65.402 15.5606 64.862 14.9907C64.3234 14.4248 63.5739 14.1378 62.6367 14.1378C61.977 14.1378 61.3894 14.2847 60.8929 14.5758C60.3978 14.8655 60.0047 15.2831 59.7232 15.8163C59.4402 16.3536 59.2961 17.0038 59.2961 17.7478V26.6176H56.0996V11.6011H58.9696L59.1954 13.168C59.5055 12.7436 59.9041 12.3655 60.3869 12.0377C61.2235 11.4691 62.2518 11.1821 63.442 11.1821C64.7777 11.1821 65.9053 11.5494 66.7948 12.273C67.3321 12.7096 67.7592 13.2401 68.0721 13.8522C68.3727 13.2387 68.8079 12.7083 69.3697 12.2703C70.2973 11.548 71.4549 11.1821 72.8096 11.1821C74.5303 11.1821 75.9054 11.6949 76.8957 12.7055C77.8859 13.7162 78.3878 15.1104 78.3878 16.8501V26.6176H75.2512V26.619Z" fill="#1F1C53"/>
<path d="M87.9649 26.9781C86.5203 26.9781 85.2186 26.6421 84.0965 25.9797C82.9729 25.3159 82.0834 24.3842 81.4522 23.2117C80.8211 22.0419 80.5015 20.6681 80.5015 19.1257C80.5015 17.5832 80.8157 16.1754 81.4359 14.9961C82.0575 13.8141 82.9267 12.8728 84.0189 12.1995C85.1112 11.5249 86.3993 11.1835 87.8452 11.1835C89.2911 11.1835 90.5248 11.4936 91.5775 12.107C92.6317 12.7205 93.4614 13.5924 94.0449 14.6969C94.6257 15.7973 94.9195 17.1058 94.9195 18.587V19.8248L83.6136 19.852C83.7265 21.1347 84.1005 22.1616 84.7289 22.9084C85.4852 23.8061 86.5938 24.2618 88.0247 24.2618C89.0802 24.2618 89.9521 24.0496 90.6159 23.6334C91.2701 23.2226 91.7149 22.6146 91.9407 21.827L91.9802 21.6883H94.9984L94.944 21.9222C94.5768 23.5177 93.7756 24.7732 92.5664 25.6546C91.3613 26.5333 89.8134 26.9781 87.9649 26.9781ZM91.7204 17.5873C91.6836 16.5168 91.3313 15.6395 90.673 14.9811C89.9752 14.2834 89.0231 13.9297 87.8452 13.9297C86.9474 13.9297 86.1708 14.1269 85.5355 14.5146C84.9044 14.9009 84.4147 15.4763 84.0842 16.2244C83.9033 16.6324 83.77 17.0894 83.6857 17.5873H91.7204Z" fill="#1F1C53"/>
<path d="M97.2488 26.6189V11.6323H100.249L100.39 13.3502C100.641 12.9408 100.965 12.5749 101.361 12.258C102.15 11.6241 103.147 11.3031 104.323 11.3031C104.588 11.3031 104.844 11.3194 105.081 11.3493C105.315 11.3806 105.577 11.4269 105.859 11.4867L106.01 11.5194V14.4384H104.561C103.284 14.4384 102.267 14.807 101.539 15.5347C100.811 16.2624 100.443 17.3192 100.443 18.6767V26.6189H97.2461H97.2488Z" fill="#1F1C53"/>
<path d="M114.462 33.5614C112.43 33.5614 110.738 33.0133 109.432 31.9319C108.124 30.8478 107.316 29.338 107.032 27.4446L106.999 27.2243H110.195L110.223 27.3848C110.393 28.4076 110.852 29.2129 111.587 29.7787C112.327 30.3486 113.295 30.637 114.464 30.637C115.78 30.637 116.848 30.2385 117.636 29.4509C118.423 28.6634 118.822 27.5861 118.822 26.249V23.9652C118.446 24.4699 117.973 24.9024 117.41 25.2574C116.386 25.9022 115.183 26.23 113.837 26.23C112.41 26.23 111.157 25.8926 110.112 25.2275C109.071 24.5637 108.257 23.6565 107.695 22.533C107.136 21.4149 106.852 20.1376 106.852 18.7366C106.852 17.3356 107.14 16.0543 107.71 14.9254C108.282 13.7923 109.11 12.8756 110.172 12.2009C111.236 11.5262 112.509 11.1835 113.956 11.1835C115.306 11.1835 116.48 11.5113 117.445 12.1587C118.046 12.5614 118.544 13.0673 118.933 13.6658L119.109 11.6024H121.99V25.8287C121.99 27.3889 121.68 28.764 121.07 29.9134C120.457 31.0682 119.575 31.9754 118.452 32.6093C117.33 33.2418 115.99 33.5614 114.468 33.5614M114.343 14.0195C113.448 14.0195 112.672 14.2303 112.038 14.6465C111.402 15.0641 110.907 15.6272 110.564 16.3223C110.22 17.0214 110.044 17.8131 110.044 18.6768C110.044 19.5405 110.224 20.3675 110.578 21.0748C110.93 21.7808 111.432 22.3493 112.068 22.7669C112.702 23.1831 113.457 23.394 114.313 23.394C115.229 23.394 116.021 23.1926 116.666 22.7941C117.309 22.3956 117.815 21.8379 118.166 21.1347C118.52 20.4274 118.699 19.6004 118.699 18.6768C118.699 17.7532 118.525 16.9357 118.181 16.2488C117.84 15.566 117.341 15.0192 116.696 14.6193C116.051 14.2222 115.259 14.0195 114.343 14.0195Z" fill="#1F1C53"/>
<path d="M131.71 26.9781C130.266 26.9781 128.964 26.6421 127.842 25.9797C126.719 25.3159 125.829 24.3842 125.198 23.2117C124.567 22.0419 124.247 20.6681 124.247 19.1257C124.247 17.5832 124.561 16.1754 125.182 14.9961C125.803 13.8141 126.672 12.8728 127.765 12.1995C128.857 11.5249 130.145 11.1835 131.591 11.1835C133.037 11.1835 134.27 11.4936 135.323 12.107C136.377 12.7205 137.207 13.5924 137.791 14.6969C138.371 15.7973 138.665 17.1058 138.665 18.587V19.8248L127.359 19.852C127.472 21.1347 127.846 22.1616 128.475 22.9084C129.229 23.8061 130.339 24.2618 131.769 24.2618C132.824 24.2618 133.696 24.0496 134.36 23.6334C135.014 23.2226 135.459 22.6146 135.685 21.827L135.724 21.6883H138.743L138.688 21.9222C138.321 23.5177 137.52 24.7732 136.311 25.6546C135.106 26.5333 133.558 26.9781 131.709 26.9781M135.467 17.5873C135.431 16.5168 135.078 15.6395 134.42 14.9811C133.722 14.2834 132.77 13.9297 131.592 13.9297C130.694 13.9297 129.918 14.1269 129.284 14.5146C128.651 14.9009 128.163 15.4763 127.833 16.2244C127.652 16.6324 127.518 17.0894 127.434 17.5873H135.469H135.467Z" fill="#1F1C53"/>
<path d="M147.026 6.75732H143.711V26.6176H147.026V6.75732Z" fill="#1F1C53"/>
<path d="M148.667 6.75732V9.83409H155.19V26.6189H158.505V9.83409H165V6.75732H148.667Z" fill="#1F1C53"/>
<path d="M27.8812 23.8822C25.3389 28.4484 20.4626 31.5442 14.875 31.5442C9.28727 31.5442 4.41368 28.4484 1.87012 23.8822H5.54673C7.70536 26.6692 11.0841 28.4661 14.8736 28.4661C18.6631 28.4661 22.0446 26.6706 24.2032 23.8822H27.8798H27.8812Z" fill="#4D47CC"/>
<path d="M29.7516 18.2076H0V16.6692C0 8.46585 6.67312 1.79272 14.8751 1.79272C23.0771 1.79272 29.7502 8.46585 29.7502 16.6678V18.2062L29.7516 18.2076ZM3.17742 15.1295H26.5728C25.8165 9.34862 20.8586 4.87085 14.8751 4.87085C8.8916 4.87085 3.93369 9.34862 3.17742 15.1295Z" fill="#4D47CC"/>
<path d="M39.6807 26.6189V6.75732H53.2609V9.83409H42.9968V15.1361H52.2434V18.1218H42.9968V23.5136H53.2609V26.6189H39.6807Z" fill="#1F1C53"/>
</svg>
